<svg width="118" height="140" viewBox="0 0 118 140" fill="none" xmlns="http://www.w3.org/2000/svg">
<rect x="5" y="2" width="108" height="108" rx="22" fill="url(#paint0_linear_4006_990)"/>
<rect x="5" y="2" width="108" height="108" rx="22" stroke="url(#paint1_linear_4006_990)" stroke-width="4"/>
<g filter="url(#filter0_d_4006_990)">
<path d="M56.1992 47.0581C56.9432 46.4903 57.8499 46 59 46C60.1501 46 61.0568 46.4903 61.8008 47.0581C62.4752 47.5726 63.2051 48.3026 63.9968 49.0946L65.9053 51.0032C66.6976 51.7949 67.4275 52.5248 67.9419 53.1992C68.5099 53.9432 69 54.8499 69 56C69 57.1501 68.5099 58.0568 67.9419 58.8008C67.4275 59.4752 66.6973 60.2051 65.9053 60.9968L63.9968 62.9053C63.2051 63.6973 62.4752 64.4275 61.8008 64.9419C61.0568 65.5099 60.1501 66 59 66C57.8499 66 56.9432 65.5099 56.1992 64.9419C55.5248 64.4275 54.7949 63.6973 54.0032 62.9053L52.0946 60.9971C51.3026 60.2051 50.5726 59.4752 50.0581 58.8008C49.4903 58.0568 49 57.1501 49 56C49 54.8499 49.4903 53.9432 50.0581 53.1992C50.5726 52.5248 51.3026 51.7949 52.0946 51.0032L54.0032 49.0946C54.7949 48.3026 55.5248 47.5726 56.1992 47.0581Z" fill="#3384FF"/>
<path d="M50.5426 27.5927C51.4632 27.3905 52.5202 27.3333 53.6666 27.3333H64.3333C65.4797 27.3333 66.5367 27.3905 67.4573 27.5927C68.4005 27.7999 69.3234 28.1857 70.0687 28.9311C70.8141 29.6765 71.1999 30.5994 71.4071 31.5427C71.6095 32.4633 71.6666 33.5202 71.6666 34.6666C71.6666 35.813 71.6095 36.87 71.4071 37.7906C71.1999 38.7338 70.8141 39.6568 70.0687 40.4022C69.3234 41.1476 68.4005 41.5334 67.4573 41.7406C66.5367 41.9428 65.4797 42 64.3333 42H53.6666C52.5202 42 51.4632 41.9428 50.5426 41.7406C49.5994 41.5334 48.6764 41.1476 47.931 40.4022C47.1857 39.6568 46.7999 38.7338 46.5927 37.7906C46.3904 36.87 46.3333 35.813 46.3333 34.6666C46.3333 33.5202 46.3904 32.4633 46.5927 31.5427C46.7999 30.5994 47.1857 29.6765 47.931 28.9311C48.6764 28.1857 49.5994 27.7999 50.5426 27.5927Z" fill="#3384FF"/>
<path d="M50.5426 70.2595C51.4632 70.0571 52.5202 70 53.6666 70H64.3333C65.4797 70 66.5367 70.0571 67.4573 70.2595C68.4005 70.4667 69.3234 70.8525 70.0687 71.5979C70.8141 72.3432 71.1999 73.2661 71.4071 74.2093C71.6095 75.1299 71.6666 76.1869 71.6666 77.3333C71.6666 78.4797 71.6095 79.5368 71.4071 80.4573C71.1999 81.4005 70.8141 82.3235 70.0687 83.0688C69.3234 83.8141 68.4005 84.2 67.4573 84.4072C66.5367 84.6096 65.4797 84.6667 64.3333 84.6667H53.6666C52.5202 84.6667 51.4632 84.6096 50.5426 84.4072C49.5994 84.2 48.6764 83.8141 47.931 83.0688C47.1857 82.3235 46.7999 81.4005 46.5927 80.4573C46.3904 79.5368 46.3333 78.4797 46.3333 77.3333C46.3333 76.1869 46.3904 75.1299 46.5927 74.2093C46.7999 73.2661 47.1857 72.3432 47.931 71.5979C48.6764 70.8525 49.5994 70.4667 50.5426 70.2595Z" fill="#3384FF"/>
<path fill-rule="evenodd" clip-rule="evenodd" d="M48.1578 32C48.2161 32 48.2746 32 48.3333 32C49.8061 32 51 33.1939 51 34.6667C51 36.1394 49.8061 37.3333 48.3333 37.3333C45.7438 37.3333 44.0699 37.339 42.8366 37.5048C41.6799 37.6604 41.3174 37.9114 41.1144 38.1144C40.9114 38.3174 40.6604 38.6799 40.5048 39.8366C40.339 41.0699 40.3333 42.7438 40.3333 45.3333C40.3333 47.9229 40.339 49.5968 40.5048 50.8301C40.6604 51.9867 40.9114 52.3493 41.1144 52.5523C41.3174 52.7552 41.6799 53.0064 42.8366 53.1619C44.0699 53.3277 45.7438 53.3333 48.3333 53.3333H49.6667C51.1394 53.3333 52.3333 54.5272 52.3333 56C52.3333 57.4728 51.1394 58.6667 49.6667 58.6667H48.1578C45.7938 58.6669 43.757 58.6669 42.1259 58.4477C40.3779 58.2125 38.7023 57.6827 37.3432 56.3235C35.9841 54.9645 35.4541 53.2888 35.2191 51.5408C34.9998 49.9097 34.9999 47.8729 35 45.5089C35 45.4506 35 45.3921 35 45.3333C35 45.2746 35 45.2161 35 45.1578C34.9999 42.7938 34.9998 40.757 35.2191 39.1259C35.4541 37.3779 35.9841 35.7023 37.3432 34.3432C38.7023 32.9841 40.3779 32.4541 42.1259 32.2191C43.757 31.9998 45.7938 31.9999 48.1578 32Z" fill="#3384FF"/>
<path fill-rule="evenodd" clip-rule="evenodd" d="M75.1635 58.8381C73.9302 58.6722 72.2563 58.6666 69.6667 58.6666H68.3334C66.8606 58.6666 65.6667 57.4728 65.6667 56C65.6667 54.5272 66.8606 53.3333 68.3334 53.3333H69.6667C69.7254 53.3333 69.7841 53.3333 69.8422 53.3333C72.2062 53.3333 74.243 53.333 75.8742 53.5522C77.6222 53.7874 79.2979 54.3173 80.6569 55.6765C82.0161 57.0354 82.5459 58.7112 82.7811 60.4592C83.0003 62.0904 83.0003 64.1272 83.0001 66.4912C83.0001 66.5493 83.0001 66.608 83.0001 66.6666C83.0001 66.7253 83.0001 66.784 83.0001 66.8421C83.0003 69.2061 83.0003 71.2429 82.7811 72.8741C82.5459 74.6221 82.0161 76.2978 80.6569 77.6568C79.2979 79.016 77.6222 79.5458 75.8742 79.781C74.243 80.0002 72.2062 80.0002 69.8422 80H69.6667C68.1939 80 67.0001 78.8061 67.0001 77.3333C67.0001 75.8605 68.1939 74.6666 69.6667 74.6666C72.2563 74.6666 73.9302 74.661 75.1635 74.4952C76.3201 74.3397 76.6827 74.0885 76.8857 73.8856C77.0886 73.6826 77.3398 73.32 77.4953 72.1634C77.6611 70.9301 77.6667 69.2562 77.6667 66.6666C77.6667 64.077 77.6611 62.4032 77.4953 61.1698C77.3398 60.0133 77.0886 59.6506 76.8857 59.4477C76.6827 59.2448 76.3201 58.9936 75.1635 58.8381Z" fill="#3384FF"/>
<path fill-rule="evenodd" clip-rule="evenodd" d="M58.9999 37.3333C60.4727 37.3333 61.6666 38.5272 61.6666 40V46.6666C61.6666 48.1394 60.4727 49.3333 58.9999 49.3333C57.5271 49.3333 56.3333 48.1394 56.3333 46.6666V40C56.3333 38.5272 57.5271 37.3333 58.9999 37.3333ZM58.9999 62.6666C60.4727 62.6666 61.6666 63.8605 61.6666 65.3333V72C61.6666 73.4728 60.4727 74.6666 58.9999 74.6666C57.5271 74.6666 56.3333 73.4728 56.3333 72V65.3333C56.3333 63.8605 57.5271 62.6666 58.9999 62.6666Z" fill="#3384FF"/>
</g>
<defs>
<filter id="filter0_d_4006_990" x="-8" y="9" width="134" height="134" filterUnits="userSpaceOnUse" color-interpolation-filters="sRGB">
<feFlood flood-opacity="0" result="BackgroundImageFix"/>
<feColorMatrix in="SourceAlpha" type="matrix" values="0 0 0 0 0 0 0 0 0 0 0 0 0 0 0 0 0 0 127 0" result="hardAlpha"/>
<feOffset dy="20"/>
<feGaussianBlur stdDeviation="17.5"/>
<feComposite in2="hardAlpha" operator="out"/>
<feColorMatrix type="matrix" values="0 0 0 0 0.2 0 0 0 0 0.517647 0 0 0 0 1 0 0 0 0.2 0"/>
<feBlend mode="normal" in2="BackgroundImageFix" result="effect1_dropShadow_4006_990"/>
<feBlend mode="normal" in="SourceGraphic" in2="effect1_dropShadow_4006_990" result="shape"/>
</filter>
<linearGradient id="paint0_linear_4006_990" x1="59" y1="0" x2="59" y2="112" gradientUnits="userSpaceOnUse">
<stop stop-color="white"/>
<stop offset="1" stop-color="#F3F3F3"/>
</linearGradient>
<linearGradient id="paint1_linear_4006_990" x1="36" y1="-25.5" x2="143.192" y2="45.9586" gradientUnits="userSpaceOnUse">
<stop stop-color="white" stop-opacity="0.4"/>
<stop offset="0.1" stop-color="#F6F7F9"/>
<stop offset="0.9" stop-color="#F6F7F9" stop-opacity="0.0901961"/>
<stop offset="1" stop-color="white" stop-opacity="0.4"/>
</linearGradient>
</defs>
</svg>
