<svg width="148" height="20" viewBox="0 0 148 20" fill="none" xmlns="http://www.w3.org/2000/svg">
<path d="M9.99675 1.04175C10.8712 1.04175 11.5599 1.70219 11.9996 2.59334L13.468 5.55438C13.5125 5.64602 13.6181 5.77506 13.7767 5.89312C13.9352 6.01104 14.0905 6.07609 14.1926 6.09325L16.8506 6.53852C17.8107 6.69986 18.6155 7.17049 18.8767 7.99C19.1377 8.80883 18.7553 9.65975 18.0648 10.3514L18.0642 10.3522L15.9992 12.4342C15.9174 12.5167 15.8257 12.6721 15.7682 12.8746C15.7112 13.0757 15.7061 13.259 15.732 13.3773L15.7323 13.379L16.3231 15.9546C16.5682 17.0265 16.4869 18.0895 15.7309 18.6453C14.9722 19.2028 13.9356 18.9557 12.9937 18.3947L10.5022 16.9076C10.3975 16.8451 10.2178 16.7944 10.0009 16.7944C9.78558 16.7944 9.60216 16.8444 9.49066 16.9092L9.48908 16.9102L7.0024 18.3944C6.06171 18.9573 5.02628 19.2001 4.26759 18.6419C3.51207 18.0861 3.42678 17.0251 3.67259 15.954L4.26325 13.379L4.26361 13.3773C4.28951 13.259 4.28444 13.0757 4.22733 12.8746C4.16983 12.6721 4.07816 12.5167 3.99631 12.4342L1.92987 10.3506C1.24387 9.65892 0.862673 8.80875 1.12162 7.99112C1.38132 7.17112 2.18452 6.69991 3.14527 6.53847L5.8011 6.09357L5.80194 6.09343C5.89931 6.07654 6.05225 6.01222 6.2104 5.89398C6.36884 5.77553 6.47466 5.64621 6.51926 5.55438L6.52151 5.54981L7.98801 2.59256L7.9886 2.59139C8.4325 1.70098 9.12333 1.04175 9.99675 1.04175Z" fill="#3384FF"/>
<path d="M41.9967 1.04175C42.8712 1.04175 43.5599 1.70219 43.9996 2.59334L45.468 5.55438C45.5125 5.64602 45.6181 5.77506 45.7767 5.89312C45.9352 6.01104 46.0905 6.07609 46.1926 6.09325L48.8506 6.53852C49.8107 6.69986 50.6155 7.17049 50.8767 7.99C51.1377 8.80883 50.7553 9.65975 50.0648 10.3514L50.0642 10.3522L47.9992 12.4342C47.9174 12.5167 47.8257 12.6721 47.7682 12.8746C47.7112 13.0757 47.7061 13.259 47.732 13.3773L47.7323 13.379L48.3231 15.9546C48.5682 17.0265 48.4869 18.0895 47.7309 18.6453C46.9722 19.2028 45.9356 18.9557 44.9937 18.3947L42.5022 16.9076C42.3975 16.8451 42.2178 16.7944 42.0009 16.7944C41.7856 16.7944 41.6022 16.8444 41.4907 16.9092L41.4891 16.9102L39.0024 18.3944C38.0617 18.9573 37.0263 19.2001 36.2676 18.6419C35.5121 18.0861 35.4268 17.0251 35.6726 15.954L36.2632 13.379L36.2636 13.3773C36.2895 13.259 36.2844 13.0757 36.2273 12.8746C36.1698 12.6721 36.0782 12.5167 35.9963 12.4342L33.9299 10.3506C33.2439 9.65892 32.8627 8.80875 33.1216 7.99112C33.3813 7.17112 34.1845 6.69991 35.1453 6.53847L37.8011 6.09357L37.8019 6.09343C37.8993 6.07654 38.0522 6.01222 38.2104 5.89398C38.3688 5.77553 38.4747 5.64621 38.5193 5.55438L38.5215 5.54981L39.988 2.59256L39.9886 2.59139C40.4325 1.70098 41.1233 1.04175 41.9967 1.04175Z" fill="#3384FF"/>
<path d="M73.9967 1.04175C74.8712 1.04175 75.5599 1.70219 75.9996 2.59334L77.468 5.55438C77.5125 5.64602 77.6181 5.77506 77.7767 5.89312C77.9352 6.01104 78.0905 6.07609 78.1926 6.09325L80.8506 6.53852C81.8107 6.69986 82.6155 7.17049 82.8767 7.99C83.1377 8.80883 82.7553 9.65975 82.0648 10.3514L82.0642 10.3522L79.9992 12.4342C79.9174 12.5167 79.8257 12.6721 79.7682 12.8746C79.7112 13.0757 79.7061 13.259 79.732 13.3773L79.7323 13.379L80.3231 15.9546C80.5682 17.0265 80.4869 18.0895 79.7309 18.6453C78.9722 19.2028 77.9356 18.9557 76.9937 18.3947L74.5022 16.9076C74.3975 16.8451 74.2178 16.7944 74.0009 16.7944C73.7856 16.7944 73.6022 16.8444 73.4907 16.9092L73.4891 16.9102L71.0024 18.3944C70.0617 18.9573 69.0263 19.2001 68.2676 18.6419C67.5121 18.0861 67.4268 17.0251 67.6726 15.954L68.2632 13.379L68.2636 13.3773C68.2895 13.259 68.2844 13.0757 68.2273 12.8746C68.1698 12.6721 68.0782 12.5167 67.9963 12.4342L65.9299 10.3506C65.2439 9.65892 64.8627 8.80875 65.1216 7.99112C65.3813 7.17112 66.1845 6.69991 67.1453 6.53847L69.8011 6.09357L69.8019 6.09343C69.8993 6.07654 70.0522 6.01222 70.2104 5.89398C70.3688 5.77553 70.4747 5.64621 70.5193 5.55438L70.5215 5.54981L71.988 2.59256L71.9886 2.59139C72.4325 1.70098 73.1233 1.04175 73.9967 1.04175Z" fill="#3384FF"/>
<path d="M105.997 1.04175C106.871 1.04175 107.56 1.70219 108 2.59334L109.468 5.55438C109.512 5.64602 109.618 5.77506 109.777 5.89312C109.935 6.01104 110.09 6.07609 110.193 6.09325L112.851 6.53852C113.811 6.69986 114.615 7.17049 114.877 7.99C115.138 8.80883 114.755 9.65975 114.065 10.3514L114.064 10.3522L111.999 12.4342C111.917 12.5167 111.826 12.6721 111.768 12.8746C111.711 13.0757 111.706 13.259 111.732 13.3773L111.732 13.379L112.323 15.9546C112.568 17.0265 112.487 18.0895 111.731 18.6453C110.972 19.2028 109.936 18.9557 108.994 18.3947L106.502 16.9076C106.397 16.8451 106.218 16.7944 106.001 16.7944C105.786 16.7944 105.602 16.8444 105.491 16.9092L105.489 16.9102L103.002 18.3944C102.062 18.9573 101.026 19.2001 100.268 18.6419C99.5121 18.0861 99.4268 17.0251 99.6726 15.954L100.263 13.379L100.264 13.3773C100.29 13.259 100.284 13.0757 100.227 12.8746C100.17 12.6721 100.078 12.5167 99.9963 12.4342L97.9299 10.3506C97.2439 9.65892 96.8627 8.80875 97.1216 7.99112C97.3813 7.17112 98.1845 6.69991 99.1453 6.53847L101.801 6.09357L101.802 6.09343C101.899 6.07654 102.052 6.01222 102.21 5.89398C102.369 5.77553 102.475 5.64621 102.519 5.55438L102.522 5.54981L103.988 2.59256L103.989 2.59139C104.432 1.70098 105.123 1.04175 105.997 1.04175Z" fill="#3384FF"/>
<path d="M137.997 1.04175C138.871 1.04175 139.56 1.70219 140 2.59334L141.468 5.55438C141.512 5.64602 141.618 5.77506 141.777 5.89312C141.935 6.01104 142.09 6.07609 142.193 6.09325L144.851 6.53852C145.811 6.69986 146.615 7.17049 146.877 7.99C147.138 8.80883 146.755 9.65975 146.065 10.3514L146.064 10.3522L143.999 12.4342C143.917 12.5167 143.826 12.6721 143.768 12.8746C143.711 13.0757 143.706 13.259 143.732 13.3773L143.732 13.379L144.323 15.9546C144.568 17.0265 144.487 18.0895 143.731 18.6453C142.972 19.2028 141.936 18.9557 140.994 18.3947L138.502 16.9076C138.397 16.8451 138.218 16.7944 138.001 16.7944C137.786 16.7944 137.602 16.8444 137.491 16.9092L137.489 16.9102L135.002 18.3944C134.062 18.9573 133.026 19.2001 132.268 18.6419C131.512 18.0861 131.427 17.0251 131.673 15.954L132.263 13.379L132.264 13.3773C132.29 13.259 132.284 13.0757 132.227 12.8746C132.17 12.6721 132.078 12.5167 131.996 12.4342L129.93 10.3506C129.244 9.65892 128.863 8.80875 129.122 7.99112C129.381 7.17112 130.185 6.69991 131.145 6.53847L133.801 6.09357L133.802 6.09343C133.899 6.07654 134.052 6.01222 134.21 5.89398C134.369 5.77553 134.475 5.64621 134.519 5.55438L134.522 5.54981L135.988 2.59256L135.989 2.59139C136.432 1.70098 137.123 1.04175 137.997 1.04175Z" fill="#3384FF"/>
</svg>
