<svg width="120" height="139" viewBox="0 0 120 139" fill="none" xmlns="http://www.w3.org/2000/svg">
<rect x="5.66663" y="2" width="108" height="108" rx="22" fill="url(#paint0_linear_4006_1044)"/>
<rect x="5.66663" y="2" width="108" height="108" rx="22" stroke="url(#paint1_linear_4006_1044)" stroke-width="4"/>
<g filter="url(#filter0_d_4006_1044)">
<path fill-rule="evenodd" clip-rule="evenodd" d="M71.6621 28.6667C70.1893 28.6667 68.9955 29.8606 68.9955 31.3334C68.9955 32.8061 70.1893 34 71.6621 34H73.2845C71.972 35.1958 70.2005 36.6843 67.9235 38.3459C61.9712 42.6895 52.5492 48.2268 38.8189 52.8035C37.4217 53.2694 36.6666 54.7795 37.1324 56.1766C37.5981 57.5739 39.1083 58.3288 40.5055 57.8632C54.7752 53.1067 64.6864 47.3105 71.0675 42.6541C73.5733 40.8255 75.5325 39.1743 76.9955 37.8335V39.3334C76.9955 40.8061 78.1893 42 79.6621 42C81.1349 42 82.3288 40.8061 82.3288 39.3334V31.3334C82.3288 29.8606 81.1349 28.6667 79.6621 28.6667H71.6621ZM78.3333 47.3334H78.2752C77.7037 47.3333 77.1789 47.3333 76.7381 47.3634C76.2645 47.3957 75.7435 47.4693 75.2141 47.6886C74.0707 48.1622 73.1621 49.0707 72.6885 50.2142C72.4693 50.7435 72.3957 51.2643 72.3635 51.7382C72.3333 52.179 72.3333 52.7038 72.3333 53.2752V53.3334V77.3915C72.3333 77.963 72.3333 78.4878 72.3635 78.9286C72.3957 79.4024 72.4693 79.9232 72.6885 80.4526C73.1621 81.596 74.0707 82.5046 75.2141 82.9782C75.7435 83.1974 76.2645 83.271 76.7381 83.3032C77.1789 83.3334 77.704 83.3334 78.2752 83.3334H78.3915C78.9627 83.3334 79.4877 83.3334 79.9285 83.3032C80.4024 83.271 80.9232 83.1974 81.4525 82.9782C82.596 82.5046 83.5045 81.596 83.9781 80.4526C84.1973 79.9232 84.2709 79.4024 84.3032 78.9286C84.3333 78.4878 84.3333 77.963 84.3333 77.3918V53.2752C84.3333 52.704 84.3333 52.179 84.3032 51.7382C84.2709 51.2643 84.1973 50.7435 83.9781 50.2142C83.5045 49.0707 82.596 48.1622 81.4525 47.6886C80.9232 47.4693 80.4024 47.3957 79.9285 47.3634C79.4877 47.3333 78.9629 47.3333 78.3915 47.3334H78.3333ZM59.6085 56.6667H59.6667H59.7248C60.2963 56.6667 60.8211 56.6667 61.2619 56.6968C61.7357 56.7291 62.2565 56.8027 62.7859 57.0219C63.9293 57.4955 64.8379 58.404 65.3115 59.5475C65.5307 60.0768 65.6043 60.5976 65.6365 61.0715C65.6667 61.5123 65.6667 62.0371 65.6667 62.6086V77.3915C65.6667 77.963 65.6667 78.4878 65.6365 78.9286C65.6043 79.4024 65.5307 79.9232 65.3115 80.4526C64.8379 81.596 63.9293 82.5046 62.7859 82.9782C62.2565 83.1974 61.7357 83.271 61.2619 83.3032C60.8211 83.3334 60.296 83.3334 59.7248 83.3334H59.6085C59.0373 83.3334 58.5123 83.3334 58.0715 83.3032C57.5979 83.271 57.0768 83.1974 56.5475 82.9782C55.404 82.5046 54.4955 81.596 54.0219 80.4526C53.8026 79.9232 53.729 79.4024 53.6967 78.9286C53.6666 78.4878 53.6666 77.963 53.6667 77.3915V62.6667V62.6086C53.6666 62.0371 53.6666 61.5123 53.6967 61.0715C53.729 60.5976 53.8026 60.0768 54.0219 59.5475C54.4955 58.404 55.404 57.4955 56.5475 57.0219C57.0768 56.8027 57.5979 56.7291 58.0715 56.6968C58.5123 56.6667 59.0371 56.6667 59.6085 56.6667ZM41 63.3334H40.942C40.3706 63.3334 39.8456 63.3334 39.4048 63.3635C38.9311 63.3958 38.4102 63.4694 37.8808 63.6886C36.7374 64.1622 35.8289 65.0707 35.3552 66.2142C35.136 66.7435 35.0623 67.2643 35.03 67.7382C34.9999 68.179 35 68.7038 35 69.2752V69.3334V77.3915C35 77.963 34.9999 78.4878 35.03 78.9286C35.0623 79.4024 35.136 79.9232 35.3552 80.4526C35.8289 81.596 36.7374 82.5046 37.8808 82.9782C38.4102 83.1974 38.9311 83.271 39.4048 83.3032C39.8456 83.3334 40.3705 83.3334 40.9418 83.3334H41.058C41.6294 83.3334 42.1544 83.3334 42.5952 83.3032C43.0689 83.271 43.5898 83.1974 44.1192 82.9782C45.2627 82.5046 46.1711 81.596 46.6448 80.4526C46.864 79.9232 46.9377 79.4024 46.97 78.9286C47.0001 78.4878 47.0001 77.9627 47 77.3915V69.2752C47.0001 68.704 47.0001 68.179 46.97 67.7382C46.9377 67.2643 46.864 66.7435 46.6448 66.2142C46.1711 65.0707 45.2627 64.1622 44.1192 63.6886C43.5898 63.4694 43.0689 63.3958 42.5952 63.3635C42.1544 63.3334 41.6295 63.3334 41.0581 63.3334H41Z" fill="#3384FF"/>
</g>
<defs>
<filter id="filter0_d_4006_1044" x="-7.33337" y="9" width="134" height="134" filterUnits="userSpaceOnUse" color-interpolation-filters="sRGB">
<feFlood flood-opacity="0" result="BackgroundImageFix"/>
<feColorMatrix in="SourceAlpha" type="matrix" values="0 0 0 0 0 0 0 0 0 0 0 0 0 0 0 0 0 0 127 0" result="hardAlpha"/>
<feOffset dy="20"/>
<feGaussianBlur stdDeviation="17.5"/>
<feComposite in2="hardAlpha" operator="out"/>
<feColorMatrix type="matrix" values="0 0 0 0 0.2 0 0 0 0 0.517647 0 0 0 0 1 0 0 0 0.2 0"/>
<feBlend mode="normal" in2="BackgroundImageFix" result="effect1_dropShadow_4006_1044"/>
<feBlend mode="normal" in="SourceGraphic" in2="effect1_dropShadow_4006_1044" result="shape"/>
</filter>
<linearGradient id="paint0_linear_4006_1044" x1="59.6666" y1="0" x2="59.6666" y2="112" gradientUnits="userSpaceOnUse">
<stop stop-color="white"/>
<stop offset="1" stop-color="#F3F3F3"/>
</linearGradient>
<linearGradient id="paint1_linear_4006_1044" x1="36.6666" y1="-25.5" x2="143.859" y2="45.9586" gradientUnits="userSpaceOnUse">
<stop stop-color="white" stop-opacity="0.4"/>
<stop offset="0.1" stop-color="#F6F7F9"/>
<stop offset="0.9" stop-color="#F6F7F9" stop-opacity="0.0901961"/>
<stop offset="1" stop-color="white" stop-opacity="0.4"/>
</linearGradient>
</defs>
</svg>
