<svg width="128" height="140" viewBox="0 0 128 140" fill="none" xmlns="http://www.w3.org/2000/svg">
<rect x="9.66663" y="2" width="108" height="108" rx="22" fill="url(#paint0_linear_4006_1036)"/>
<rect x="9.66663" y="2" width="108" height="108" rx="22" stroke="url(#paint1_linear_4006_1036)" stroke-width="4"/>
<g filter="url(#filter0_d_4006_1036)">
<path d="M59 67.3645C59 58.4288 66.5472 51.3333 75.6667 51.3333C84.7861 51.3333 92.3333 58.4288 92.3333 67.3645C92.3333 71.6456 90.5875 75.5234 87.7707 78.3837C87.6552 78.501 87.5923 78.608 87.5656 78.6752C87.5587 78.6928 87.5549 78.7048 87.5533 78.7122C87.7363 79.6549 88.1437 80.5266 88.7301 81.248C89.1755 81.7954 89.2989 82.537 89.0557 83.1994C88.8123 83.8618 88.2379 84.3469 87.544 84.476C84.9768 84.9536 82.3203 84.5229 80.0443 83.3125C79.7629 83.1629 79.5771 83.0645 79.4395 82.9957C79.3107 83.017 79.1357 83.0496 78.8733 83.0989C77.816 83.2973 76.7424 83.397 75.6653 83.3957C66.5467 83.3949 59 76.3 59 67.3645Z" fill="#3384FF"/>
<path d="M61 27.3333C46.7265 27.3333 35 38.4267 35 52.2933C35 58.9437 37.7103 64.9744 42.1003 69.432C42.7153 70.0565 42.8816 70.6626 42.8056 71.0685C42.4703 72.8272 41.7122 74.46 40.6108 75.8149C40.1657 76.3624 40.042 77.104 40.2854 77.7664C40.5288 78.4285 41.1032 78.9136 41.7969 79.0426C45.7089 79.7704 49.7637 79.1146 53.239 77.2664C53.6832 77.0304 54.002 76.861 54.2493 76.7373C54.4092 76.6573 54.4891 76.6173 54.5525 76.5976C54.6076 76.5808 54.619 76.5779 54.621 76.5776C54.6057 76.5802 54.6309 76.5754 54.621 76.5776C54.6111 76.5789 54.6363 76.5749 54.621 76.5776C54.6716 76.5709 54.7313 76.5699 54.7975 76.58C55.0606 76.616 55.4165 76.6824 55.9878 76.7896C56.629 76.9101 57.101 76.22 56.8249 75.6291C55.6558 73.1272 55 70.3354 55 67.3645C55 56.0482 64.5133 47.3333 75.6667 47.3333C78.6648 47.3333 81.5445 47.963 84.1525 49.1038C85.4824 49.6853 86.1472 49.9761 86.5251 49.6704C86.9032 49.3646 86.7731 48.7275 86.5128 47.4534C84.1597 35.9329 73.5672 27.3333 61 27.3333Z" fill="#3384FF"/>
</g>
<defs>
<filter id="filter0_d_4006_1036" x="-3.33337" y="9" width="134" height="134" filterUnits="userSpaceOnUse" color-interpolation-filters="sRGB">
<feFlood flood-opacity="0" result="BackgroundImageFix"/>
<feColorMatrix in="SourceAlpha" type="matrix" values="0 0 0 0 0 0 0 0 0 0 0 0 0 0 0 0 0 0 127 0" result="hardAlpha"/>
<feOffset dy="20"/>
<feGaussianBlur stdDeviation="17.5"/>
<feComposite in2="hardAlpha" operator="out"/>
<feColorMatrix type="matrix" values="0 0 0 0 0.2 0 0 0 0 0.517647 0 0 0 0 1 0 0 0 0.2 0"/>
<feBlend mode="normal" in2="BackgroundImageFix" result="effect1_dropShadow_4006_1036"/>
<feBlend mode="normal" in="SourceGraphic" in2="effect1_dropShadow_4006_1036" result="shape"/>
</filter>
<linearGradient id="paint0_linear_4006_1036" x1="63.6666" y1="0" x2="63.6666" y2="112" gradientUnits="userSpaceOnUse">
<stop stop-color="white"/>
<stop offset="1" stop-color="#F3F3F3"/>
</linearGradient>
<linearGradient id="paint1_linear_4006_1036" x1="40.6666" y1="-25.5" x2="147.859" y2="45.9586" gradientUnits="userSpaceOnUse">
<stop stop-color="white" stop-opacity="0.4"/>
<stop offset="0.1" stop-color="#F6F7F9"/>
<stop offset="0.9" stop-color="#F6F7F9" stop-opacity="0.0901961"/>
<stop offset="1" stop-color="white" stop-opacity="0.4"/>
</linearGradient>
</defs>
</svg>
